<svg width="219" height="224" viewBox="0 0 219 224" fill="none" xmlns="http://www.w3.org/2000/svg">
<path d="M81.2282 4.77818C81.2282 7.4171 79.089 9.55636 76.4501 9.55636C73.8111 9.55636 71.6719 7.4171 71.6719 4.77818C71.6719 2.13927 73.8111 0 76.4501 0C79.089 0 81.2282 2.13927 81.2282 4.77818Z" fill="#E6EBF9"/>
<path d="M14.3345 39.0227C14.3345 42.9811 11.1256 46.19 7.16727 46.19C3.2089 46.19 0 42.9811 0 39.0227C0 35.0644 3.2089 31.8555 7.16727 31.8555C11.1256 31.8555 14.3345 35.0644 14.3345 39.0227Z" fill="#E2C2FF"/>
<path d="M189.533 219.001C189.533 221.64 187.394 223.779 184.755 223.779C182.116 223.779 179.977 221.64 179.977 219.001C179.977 216.362 182.116 214.223 184.755 214.223C187.394 214.223 189.533 216.362 189.533 219.001Z" fill="#E8EAF7"/>
<path d="M219 183.164C219 184.923 217.574 186.349 215.814 186.349C214.055 186.349 212.629 184.923 212.629 183.164C212.629 181.405 214.055 179.979 215.814 179.979C217.574 179.979 219 181.405 219 183.164Z" fill="#FFF4D1"/>
<path d="M6.37193 70.8754C6.37193 72.1949 5.3023 73.2645 3.98284 73.2645C2.66338 73.2645 1.59375 72.1949 1.59375 70.8754C1.59375 69.556 2.66338 68.4863 3.98284 68.4863C5.3023 68.4863 6.37193 69.556 6.37193 70.8754Z" fill="#C5CFF1"/>
<path d="M215.813 111.491C215.813 168.227 169.819 214.222 113.082 214.222C56.3458 214.222 10.3516 168.227 10.3516 111.491C10.3516 54.754 56.3458 8.75977 113.082 8.75977C169.819 8.75977 215.813 54.754 215.813 111.491Z" fill="#EAF0FE"/>
<mask id="mask0_1321_8657" style="mask-type:alpha" maskUnits="userSpaceOnUse" x="10" y="8" width="206" height="207">
<path d="M215.817 111.491C215.817 168.227 169.823 214.222 113.086 214.222C56.3497 214.222 10.3555 168.227 10.3555 111.491C10.3555 54.754 56.3497 8.75977 113.086 8.75977C169.823 8.75977 215.817 54.754 215.817 111.491Z" fill="#EAF0FE"/>
</mask>
<g mask="url(#mask0_1321_8657)">
<g filter="url(#filter0_d_1321_8657)">
<path d="M35.8398 69.283C35.8398 65.7645 38.6922 62.9121 42.2108 62.9121H183.167C186.686 62.9121 189.538 65.7645 189.538 69.283V100.341C189.538 103.86 186.686 106.712 183.167 106.712H42.2108C38.6922 106.712 35.8398 103.86 35.8398 100.341V69.283Z" fill="white"/>
</g>
<path d="M71.675 85.2106C71.675 92.2477 65.9703 97.9524 58.9332 97.9524C51.8961 97.9524 46.1914 92.2477 46.1914 85.2106C46.1914 78.1735 51.8961 72.4688 58.9332 72.4688C65.9703 72.4688 71.675 78.1735 71.675 85.2106Z" fill="#E9FAE6"/>
<path d="M83.6211 81.2294C83.6211 80.3498 84.3342 79.6367 85.2138 79.6367H125.032C125.912 79.6367 126.625 80.3498 126.625 81.2294V81.2294C126.625 82.1091 125.912 82.8222 125.032 82.8222H85.2138C84.3342 82.8222 83.6211 82.1091 83.6211 81.2294V81.2294Z" fill="#A3C6A4"/>
<path d="M83.6211 89.1923C83.6211 88.3127 84.3342 87.5996 85.2138 87.5996H155.294C156.173 87.5996 156.887 88.3127 156.887 89.1923V89.1923C156.887 90.072 156.173 90.7851 155.294 90.7851H85.2138C84.3342 90.7851 83.6211 90.072 83.6211 89.1923V89.1923Z" fill="#A3C6A4"/>
<path fill-rule="evenodd" clip-rule="evenodd" d="M76.0982 74.6531C76.6517 75.3368 76.5461 76.3398 75.8624 76.8932L57.8541 91.4713L52.0843 83.7782C51.5565 83.0745 51.6991 82.0762 52.4028 81.5484C53.1065 81.0206 54.1048 81.1632 54.6326 81.8669L58.4191 86.9156L73.8581 74.4173C74.5418 73.8639 75.5447 73.9694 76.0982 74.6531Z" fill="#A3C6A4"/>
<path d="M28.6719 117.862C28.6719 116.542 29.7415 115.473 31.061 115.473H182.37C183.69 115.473 184.759 116.542 184.759 117.862V211.833C184.759 213.152 183.69 214.222 182.37 214.222H31.061C29.7415 214.222 28.6719 213.152 28.6719 211.833V117.862Z" fill="white"/>
<path d="M63.5414 138.482C63.5414 144.152 58.9448 148.748 53.2746 148.748C47.6044 148.748 43.0078 144.152 43.0078 138.482C43.0078 132.811 47.6044 128.215 53.2746 128.215C58.9448 128.215 63.5414 132.811 63.5414 138.482Z" fill="#EFEFEF"/>
<path d="M63.5414 166.355C63.5414 172.025 58.9448 176.621 53.2746 176.621C47.6044 176.621 43.0078 172.025 43.0078 166.355C43.0078 160.684 47.6044 156.088 53.2746 156.088C58.9448 156.088 63.5414 160.684 63.5414 166.355Z" fill="#EFEFEF"/>
<path d="M63.5414 194.226C63.5414 199.896 58.9448 204.493 53.2746 204.493C47.6044 204.493 43.0078 199.896 43.0078 194.226C43.0078 188.556 47.6044 183.959 53.2746 183.959C58.9448 183.959 63.5414 188.556 63.5414 194.226Z" fill="#EFEFEF"/>
<path d="M73.1641 135.274C73.1641 134.565 73.7386 133.99 74.4474 133.99H106.531C107.24 133.99 107.814 134.565 107.814 135.274V135.274C107.814 135.982 107.24 136.557 106.531 136.557H74.4474C73.7386 136.557 73.1641 135.982 73.1641 135.274V135.274Z" fill="#EFEFEF"/>
<path d="M73.1641 163.145C73.1641 162.436 73.7386 161.861 74.4474 161.861H106.531C107.24 161.861 107.814 162.436 107.814 163.145V163.145C107.814 163.853 107.24 164.428 106.531 164.428H74.4474C73.7386 164.428 73.1641 163.853 73.1641 163.145V163.145Z" fill="#EFEFEF"/>
<path d="M73.1641 191.018C73.1641 190.309 73.7386 189.734 74.4474 189.734H106.531C107.24 189.734 107.814 190.309 107.814 191.018V191.018C107.814 191.726 107.24 192.301 106.531 192.301H74.4474C73.7386 192.301 73.1641 191.726 73.1641 191.018V191.018Z" fill="#EFEFEF"/>
<path d="M73.1641 141.69C73.1641 140.981 73.7386 140.406 74.4474 140.406H130.915C131.624 140.406 132.198 140.981 132.198 141.69V141.69C132.198 142.398 131.624 142.973 130.915 142.973H74.4474C73.7386 142.973 73.1641 142.398 73.1641 141.69V141.69Z" fill="#EFEFEF"/>
<path d="M73.1641 169.561C73.1641 168.852 73.7386 168.277 74.4474 168.277H130.915C131.624 168.277 132.198 168.852 132.198 169.561V169.561C132.198 170.269 131.624 170.844 130.915 170.844H74.4474C73.7386 170.844 73.1641 170.269 73.1641 169.561V169.561Z" fill="#EFEFEF"/>
<path d="M73.1641 197.434C73.1641 196.725 73.7386 196.15 74.4474 196.15H130.915C131.624 196.15 132.198 196.725 132.198 197.434V197.434C132.198 198.143 131.624 198.717 130.915 198.717H74.4474C73.7386 198.717 73.1641 198.143 73.1641 197.434V197.434Z" fill="#EFEFEF"/>
<path d="M85.8477 16.29C75.8358 37.2174 66.1533 44.9711 43.006 52.9436C46.7979 25.91 56.5214 18.1068 85.8477 16.29Z" fill="url(#paint0_linear_1321_8657)"/>
<path d="M211.436 132.196C212.63 125.427 202.553 99.6086 213.825 90.7852L230.15 98.7488L200.685 216.611L81.2305 214.222C81.2305 214.222 107.51 175.996 124.632 172.014C139.995 168.441 152.475 183.961 166.043 177.191C174.405 173.018 175.6 152.902 179.183 141.752C181.615 134.187 210.241 138.965 211.436 132.196Z" fill="url(#paint1_linear_1321_8657)"/>
</g>
<path fill-rule="evenodd" clip-rule="evenodd" d="M159.757 191.391C145.529 199.092 130.213 202.68 109.937 204.663L109.859 203.871C130.082 201.893 145.28 198.321 159.378 190.691C173.48 183.059 186.512 171.348 202.374 153.039L202.975 153.561C187.088 171.9 173.981 183.693 159.757 191.391Z" fill="white"/>
<path fill-rule="evenodd" clip-rule="evenodd" d="M135.096 190.72C135.145 193.707 134.335 196.806 132.561 200.843L131.832 200.523C133.584 196.537 134.346 193.558 134.3 190.733C134.253 187.908 133.398 185.194 131.834 181.734L132.559 181.406C134.14 184.903 135.047 187.734 135.096 190.72Z" fill="white"/>
<path fill-rule="evenodd" clip-rule="evenodd" d="M188.533 159.886C188.523 157.161 187.933 154.616 186.773 151.446L187.52 151.172C188.699 154.392 189.319 157.033 189.329 159.884C189.34 162.729 188.742 165.754 187.527 169.741L186.766 169.509C187.971 165.554 188.543 162.616 188.533 159.886Z" fill="white"/>
<defs>
<filter id="filter0_d_1321_8657" x="27.8762" y="62.9121" width="161.663" height="52.5608" filterUnits="userSpaceOnUse" color-interpolation-filters="sRGB">
<feFlood flood-opacity="0" result="BackgroundImageFix"/>
<feColorMatrix in="SourceAlpha" type="matrix" values="0 0 0 0 0 0 0 0 0 0 0 0 0 0 0 0 0 0 127 0" result="hardAlpha"/>
<feOffset dx="-4.77818" dy="5.57455"/>
<feGaussianBlur stdDeviation="1.59273"/>
<feComposite in2="hardAlpha" operator="out"/>
<feColorMatrix type="matrix" values="0 0 0 0 0.420833 0 0 0 0 0.581713 0 0 0 0 1 0 0 0 0.3 0"/>
<feBlend mode="normal" in2="BackgroundImageFix" result="effect1_dropShadow_1321_8657"/>
<feBlend mode="normal" in="SourceGraphic" in2="effect1_dropShadow_1321_8657" result="shape"/>
</filter>
<linearGradient id="paint0_linear_1321_8657" x1="50.0138" y1="45.0168" x2="81.6716" y2="15.692" gradientUnits="userSpaceOnUse">
<stop stop-color="#6773B6"/>
<stop offset="1" stop-color="#7285EC"/>
</linearGradient>
<linearGradient id="paint1_linear_1321_8657" x1="201.481" y1="97.9524" x2="155.69" y2="216.611" gradientUnits="userSpaceOnUse">
<stop stop-color="#6773B6"/>
<stop offset="1" stop-color="#6773B6"/>
</linearGradient>
</defs>
</svg>
